<?xml version="1.0" encoding="utf-8"?>
<!-- Generator: Adobe Illustrator 24.1.1, SVG Export Plug-In . SVG Version: 6.00 Build 0)  -->
<svg version="1.1" id="Layer_1" xmlns="http://www.w3.org/2000/svg" xmlns:xlink="http://www.w3.org/1999/xlink" x="0px" y="0px"
	 viewBox="0 0 848.12 283.88" style="enable-background:new 0 0 848.12 283.88;" xml:space="preserve">
<style type="text/css">
	.st0{fill:#CA66FF;}
</style>
<g>
	<g>
		<path class="st0" d="M115.34,121.66l-43.4,33.6c-20.65,16.47-34.47,24.7-41.45,24.7c-6.34,0-13.01-6.64-20-19.92
			C3.49,146.77,0,135.16,0,125.22c0-8.46,1.42-15.61,4.27-21.47c2.84-5.86,7.76-13.46,14.75-22.81
			c9.91-12.61,19.42-23.29,28.53-32.04c9.1-8.75,17.15-15.54,24.14-20.36c6.99-4.82,11.86-7.23,14.63-7.23
			c4.39,0,8.66,2.08,12.8,6.23c4.15,4.16,6.22,8.46,6.22,12.91c0,2.82-2.24,7.34-6.71,13.58c-4.47,6.23-11.54,14.13-21.21,23.7
			c-9.67,9.57-23.13,21.03-40.36,34.38l-4.63,12.24c-1.3,2.38-1.95,4.45-1.95,6.23c0,4,2.19,6.01,6.58,6.01
			c4.55,0,15.24-5.26,32.07-15.8c16.83-10.53,35.07-24.7,54.74-42.5c7.64-6.97,13.98-13.13,19.02-18.47
			c5.04-5.34,9.59-10.35,13.66-15.02c4.06-4.67,7.44-8.2,10.12-10.57c2.68-2.37,5.08-3.63,7.19-3.78c4.06-0.45,7.23,1.11,9.51,4.67
			c2.27,3.56,3.41,8.83,3.41,15.8c0,4-1.95,9.01-5.85,15.02c-3.9,6.01-11.22,16.25-21.95,30.71
			c-10.73,14.46-21.42,29.45-32.07,44.95c-10.65,15.5-21.5,32.97-32.55,52.41c0.49-0.45,5.49-4.9,15-13.35
			c9.51-8.46,19.55-17.28,30.12-26.48c10.57-9.2,19.26-16.58,26.09-22.14s15.36-12.05,25.6-19.47v14.91
			c-21.95,21.51-41.82,41.91-59.62,61.2s-31.54,34.71-41.21,46.29c-9.67,11.57-15.32,18.32-16.95,20.25
			c-4.39,5.19-8.33,10.05-11.83,14.58c-3.5,4.52-6.42,8.01-8.78,10.46c-2.36,2.45-4.27,3.67-5.73,3.67c-3.41,0-6.46-3.08-9.14-9.24
			c-2.68-6.16-4.02-11.61-4.02-16.36c0-4.3,0.89-8.09,2.68-11.35C48.28,222.91,74.53,181.15,115.34,121.66z"/>
		<path class="st0" d="M229.22,120.99v5.56c0,8.75,2.35,15.58,7.07,20.47c4.71,4.9,10.89,7.34,18.53,7.34
			c7.96,0,16.22-1.7,24.75-5.12c8.53-3.41,17.03-7.93,25.48-13.57c8.45-5.64,18.78-13.2,30.97-22.7v13.57
			c-18.37,20.18-35.6,35.64-51.7,46.4c-16.09,10.75-32.43,16.13-49.01,16.13c-14.47,0-25.93-5.12-34.38-15.36
			c-8.45-10.24-12.68-24.26-12.68-42.06c0-15.58,3.98-29.71,11.95-42.39c7.96-12.68,20.97-26.07,39.02-40.17
			c12.35-9.64,24.63-16.91,36.82-21.81s23.08-7.34,32.68-7.34c7.64,0,13.69,1.6,18.17,4.78c4.47,3.19,6.71,7.98,6.71,14.35
			c0,9.35-3.82,18.66-11.46,27.93c-7.64,9.27-19.31,18.47-34.99,27.59C271.44,103.74,252.14,112.53,229.22,120.99z M231.65,106.53
			c14.63-5.19,27.15-11.64,37.55-19.36c10.4-7.71,18.08-15.09,23.04-22.14c4.96-7.04,7.44-12.2,7.44-15.47
			c0-3.41-1.71-5.12-5.12-5.12c-2.93,0-7.68,1.71-14.27,5.12c-6.58,3.42-13.25,7.87-20,13.35c-6.75,5.49-12.8,11.94-18.17,19.36
			C236.78,89.69,233.28,97.77,231.65,106.53z"/>
		<path class="st0" d="M492.82,112.53v14.91c-10.73,8.9-19.35,14.84-25.85,17.8c-6.5,2.97-15.85,4.16-28.04,3.56
			c-21.13,22.85-39.75,34.27-55.84,34.27c-9.11,0-17.4-2.74-24.87-8.23c-7.48-5.49-13.45-12.98-17.92-22.48
			c-4.47-9.49-6.71-20.1-6.71-31.82c0-9.49,3.45-20.03,10.36-31.6c6.91-11.57,15.85-22.36,26.82-32.38
			c10.97-10.01,22.72-18.1,35.24-24.26c12.52-6.15,24.14-9.24,34.87-9.24c7.64,0,13.66,1.08,18.04,3.23
			c4.39,2.15,6.58,5.16,6.58,9.01c0,2.97-1.87,6.38-5.61,10.24c6.18,1.19,10.4,3.15,12.68,5.9c2.27,2.75,3.41,7.75,3.41,15.02
			c0,7.12-1.83,16.1-5.49,26.93c-3.66,10.83-8.66,20.99-15,30.49l4.39,4.01h3.66c2.76,0,5.49-0.63,8.17-1.89
			c2.68-1.26,5.08-2.59,7.19-4.01C481.03,120.58,485.66,117.43,492.82,112.53z M442.58,54.01c-13.5,7.42-25.04,14.13-34.63,20.14
			c-9.59,6.01-17.72,12.09-24.38,18.25c-6.67,6.16-11.14,12.35-13.41,18.58c-4.07,16.62-6.1,25.59-6.1,26.93
			c0,9.79,7.48,14.69,22.43,14.69c6.99,0,18.69-5.49,35.11-16.47c-2.77-6.97-4.15-13.65-4.15-20.03c0-9.35,2.11-18.88,6.34-28.6
			C428.03,77.78,434.29,66.62,442.58,54.01z"/>
		<path class="st0" d="M656.68,72.7c-28.61,29.08-42.92,49.33-42.92,60.75c0,6.38,2.84,9.57,8.53,9.57c4.71,0,10.85-2.26,18.41-6.79
			c7.56-4.52,19.39-12.57,35.48-24.14v15.35c-23.09,20.77-40.81,35.75-53.16,44.95c-12.36,9.2-22.43,13.8-30.24,13.8
			c-13.33,0-20-8.01-20-24.03c0-4.75,0.81-9.42,2.44-14.02c1.62-4.6,3.86-9.38,6.71-14.35c2.84-4.97,7.19-12.09,13.05-21.36
			c5.85-9.27,12.6-19.77,20.24-31.49c-9.27,4.3-20.89,12.83-34.87,25.59c-9.11,8.01-16.83,15.62-23.17,22.81
			c-6.34,7.2-13.13,15.21-20.36,24.03c-7.24,8.83-12.52,14.76-15.85,17.8c-3.33,3.04-6.71,4.56-10.12,4.56
			c-5.2,0-10-4.97-14.39-14.91c-4.39-9.94-6.58-21.51-6.58-34.72c0-8.16,1.01-14.54,3.05-19.14c2.03-4.6,6.05-11.13,12.07-19.58
			c11.22-15.72,20.89-27.26,29.02-34.6c8.13-7.34,15.93-11.01,23.41-11.01c5.2,0,9.39,0.82,12.56,2.45
			c3.17,1.63,4.75,4.16,4.75,7.57c0,1.48-0.49,3.04-1.46,4.67c-0.98,1.63-2.07,3.12-3.29,4.45c-1.22,1.33-3.78,3.93-7.68,7.79
			c-25.69,25.96-38.53,42.8-38.53,50.52c0,4.3,1.54,6.45,4.63,6.45c1.95,0,5.73-2.85,11.34-8.57c5.61-5.71,12.84-13.2,21.7-22.48
			c8.86-9.27,19.34-18.95,31.46-29.04c12.11-10.09,25.89-19.81,41.33-29.15c8.61-5.49,15.77-8.23,21.46-8.23
			c2.6,0,5.16,3.27,7.68,9.79c2.52,6.53,3.78,13.13,3.78,19.81C667.17,61.06,663.67,66.02,656.68,72.7z"/>
	</g>
	<g>
		
			<rect x="648.75" y="73.83" transform="matrix(0.817 -0.5767 0.5767 0.817 88.0226 437.6947)" class="st0" width="169.66" height="12.69"/>
	</g>
	<g>
		<path class="st0" d="M817.12,13.67L837.22,0l-8.41,22.64l19.31,13.94l-25.13-0.38l-8.7,22.65l-6.24-22.64l-23.3-0.52l19.77-13.45
			l-5.71-21.72L817.12,13.67z"/>
	</g>
</g>
</svg>
